<svg id="Capa_1" enable-background="new 0 0 512 512" height="512" viewBox="0 0 512 512" width="512" xmlns="http://www.w3.org/2000/svg"><g><g fill="#020288"><path d="m196.148 179.246h45.477c1.569 0 3.053-.362 4.375-1.006v56.079c0 4.597 3.102 8.469 7.327 9.638-4.225 1.169-7.327 5.041-7.327 9.638v50.298c0 5.522 4.477 10 10 10 .872 0 1.717-.112 2.523-.321-.325.986-.502 2.039-.502 3.134 0 5.522 4.477 10 10 10h51.83c5.522 0 10-4.478 10-10s-4.478-10-10-10h-51.83c-.872 0-1.717.112-2.523.321.325-.986.502-2.039.502-3.134v-50.298c0-4.597-3.103-8.469-7.328-9.638 4.225-1.169 7.328-5.042 7.328-9.638v-58.468c0-5.522-4.478-10-10-10-1.671 0-3.247.411-4.631 1.136-1.024-4.435-4.998-7.741-9.744-7.741h-45.477c-5.522 0-10 4.478-10 10 0 5.523 4.478 10 10 10z"/><path d="m349.815 0h-187.63c-26.753 0-48.519 21.765-48.519 48.518v381.158.024.024 33.759c0 26.753 21.766 48.518 48.519 48.518h187.631c26.753 0 48.519-21.765 48.519-48.518v-414.965c-.001-26.753-21.767-48.518-48.52-48.518zm28.519 66.276v353.445l-244.668-.044v-353.401zm-216.149-46.276h187.631c14.97 0 27.283 11.595 28.431 26.274l-244.49-.044c1.169-14.658 13.473-26.23 28.428-26.23zm216.149 443.482c0 15.725-12.793 28.518-28.519 28.518h-187.63c-15.726 0-28.519-12.793-28.519-28.518v-23.759h244.668z"/><path d="m245.659 475.861h20.682c5.523 0 10-4.478 10-10s-4.477-10-10-10h-20.682c-5.522 0-10 4.478-10 10 0 5.523 4.478 10 10 10z"/></g><g><circle cx="330.022" cy="316.706" fill="#e2c4ff" r="19.864"/><g><circle cx="181.978" cy="169.246" fill="#e2c4ff" r="19.864"/></g><g><circle cx="256" cy="169.246" fill="#e2c4ff" r="19.864"/></g><g><circle cx="330.022" cy="169.246" fill="#e2c4ff" r="19.864"/></g><g><ellipse cx="181.978" cy="242.976" fill="#e2c4ff" rx="19.864" ry="19.864" transform="matrix(.16 -.987 .987 .16 -87.01 383.684)"/></g><g><ellipse cx="256" cy="242.976" fill="#e2c4ff" rx="19.864" ry="19.864" transform="matrix(.16 -.987 .987 .16 -24.845 456.75)"/></g><g><ellipse cx="330.022" cy="242.976" fill="#e2c4ff" rx="19.864" ry="19.864" transform="matrix(.16 -.987 .987 .16 37.32 529.816)"/></g><g><circle cx="181.978" cy="316.706" fill="#e2c4ff" r="19.864"/></g><g><circle cx="256" cy="316.706" fill="#e2c4ff" r="19.864"/></g></g></g></svg>